<?xml version="1.0" encoding="utf-8"?>
<!-- Generator: Adobe Illustrator 23.0.1, SVG Export Plug-In . SVG Version: 6.00 Build 0)  -->
<svg version="1.1" id="Layer_1" xmlns="http://www.w3.org/2000/svg" xmlns:xlink="http://www.w3.org/1999/xlink" x="0px" y="0px"
	 viewBox="0 0 121.9 140.4" style="enable-background:new 0 0 121.9 140.4;" xml:space="preserve">
<style type="text/css">
	.st0{fill:#A7884E;}
	.st1{fill:#FFFFFF;}
	.st2{fill:#EBD99E;stroke:#EBD99E;stroke-miterlimit:10;}
	.st3{fill:#C0A269;}
	.st4{fill:#F4DEEC;}
</style>
<g>
	<path class="st0" d="M20.9,119.6c0,0.9,0.8,1.7,2.4,2.4l1.1,0.5c1.4,0.6,2.4,1.3,3,2c0.5,0.6,0.8,1.3,0.8,2c0,0.7-0.1,1.3-0.4,1.8
		c-0.2,0.5-0.6,0.9-1,1.2c-0.9,0.7-1.9,1-3.2,1c-1.8,0-3.4-0.4-4.8-1.3c-0.4-0.3-0.6-0.5-0.6-0.8c0-0.1,0-0.2,0.1-0.3l1-1.1l1,0.8
		c1.4,1.1,2.5,1.6,3.4,1.6c0.6,0,1.1-0.2,1.6-0.5c0.5-0.4,0.7-0.9,0.7-1.5c0-1-0.8-1.9-2.3-2.7c-0.4-0.2-1-0.5-1.6-0.7
		c-0.6-0.3-1.1-0.5-1.6-0.9c-0.5-0.3-0.8-0.6-1.1-1c-0.4-0.6-0.7-1.2-0.7-1.9c0-1.6,1-2.7,3-3.3c0.8-0.2,1.6-0.3,2.5-0.3
		c1.2,0,2.1,0.1,2.8,0.4c0.4,0.2,0.7,0.4,0.7,0.7c0,0.1,0,0.2-0.1,0.4l-0.8,1.3l-0.9-0.5c-1.1-0.6-2.1-1-3-1c-0.9,0-1.5,0.4-1.8,1.1
		C21,119,20.9,119.3,20.9,119.6"/>
	<path class="st0" d="M38.3,117c0.4-0.3,0.9-0.5,1.5-0.5c0.4,0,0.6,0,0.7,0.1c0.2,0.1,0.4,0.4,0.5,0.7l3.7,10.4h0.1
		c1.1-3.3,1.7-5.2,1.8-5.8c0.1-0.6,0.2-1,0.3-1.2c0.1-0.3,0.1-0.6,0.1-0.9c0-0.3,0-0.5-0.1-0.8c0-0.3-0.1-0.5-0.1-0.7
		c0-0.2-0.1-0.4-0.2-0.6l-0.1-0.5l1.5-0.7c0.1-0.1,0.3-0.1,0.5-0.1c0.2,0,0.4,0.1,0.5,0.3c0.1,0.2,0.2,0.5,0.2,0.9
		c0,0.4,0,0.8-0.1,1.3c-0.1,0.5-0.2,1.1-0.4,1.7s-0.4,1.3-0.6,2.1c-0.2,0.7-0.5,1.5-0.8,2.3c-0.6,1.7-1.3,3.3-2.1,4.9h-1.1
		c-0.5,0-0.8-0.1-0.9-0.4c-0.1-0.1-0.1-0.2-0.2-0.4l-2.6-7.1c-0.3,1.4-0.9,3.2-1.8,5.3l-0.6,1.4c-0.2,0.4-0.4,0.9-0.6,1.2h-1.2
		c-0.4,0-0.8-0.1-0.9-0.4c-0.1-0.1-0.1-0.2-0.2-0.4l-4.1-11l-1.7,0.7l-0.3-0.7c0.8-0.7,1.6-1.3,2.2-1.6c0.3-0.1,0.5-0.2,0.7-0.2
		c0.5,0,0.8,0.2,1,0.7l3.9,10.7h0.1c0.5-1.3,1-2.7,1.5-4.5l0.4-1.4c0.1-0.5,0.2-0.9,0.3-1.3l0.2-1l-0.1-0.2c-0.3-1-0.6-1.7-0.9-2.1
		L38.3,117z"/>
	<path class="st0" d="M56.5,118.9l-1.5,3.5c-0.5,1.1-0.8,2.1-1,2.8h5l-2.3-6.3H56.5z M64.7,128.5c-1.3,1.2-2.3,1.7-3.1,1.7
		c-0.4,0-0.7-0.2-0.8-0.5l-1.4-3.3h-5.7c-0.2,0.7-0.3,1.3-0.3,1.9c0,0.6,0.1,1,0.2,1.4l-1.5,0.4c-0.2,0-0.3,0.1-0.4,0.1
		c-0.4,0-0.6-0.2-0.6-0.6c0.1-1,0.4-2,0.8-3.1c0.4-1.1,0.8-2,1.1-2.7c0.8-1.8,1.4-3.1,1.8-3.8c0.7-1.5,1.2-2.4,1.4-2.7
		c0.2-0.3,0.3-0.5,0.3-0.5h1c0.3,0,0.5,0,0.7,0.1c0.2,0.1,0.3,0.3,0.5,0.7l4.3,11l1.7-0.7L64.7,128.5z"/>
	<path class="st0" d="M75.4,128.5v-3.6h-2v-0.8c0.4-0.2,0.9-0.3,1.5-0.3c0.6-0.1,1.1-0.1,1.3-0.1c0.2,0,0.5,0,0.6,0
		c0.2,0,0.3,0,0.4,0c0.2,0.1,0.3,0.2,0.3,0.4v4.5c-0.8,0.8-2,1.3-3.7,1.6c-0.5,0.1-1,0.1-1.4,0.1c-2,0-3.6-0.6-4.9-1.9
		c-1.3-1.3-1.9-3-1.9-5.1c0-2.2,0.7-3.9,2-5.2c1.3-1.3,3.1-1.9,5.4-1.9c1.3,0,2.3,0.2,3.1,0.5c0.5,0.2,0.7,0.4,0.7,0.7
		c0,0.1,0,0.2-0.1,0.4l-0.8,1.3c-0.2-0.1-0.5-0.3-0.8-0.5c-0.3-0.2-0.6-0.4-1-0.6c-0.9-0.4-1.6-0.7-2.2-0.7c-0.6,0-1,0.1-1.4,0.2
		c-0.4,0.2-0.7,0.4-0.9,0.6c-0.3,0.3-0.5,0.6-0.7,1c-0.2,0.4-0.4,0.8-0.5,1.2c-0.2,0.8-0.3,1.7-0.3,2.7c0,1,0.1,1.8,0.4,2.5
		c0.3,0.7,0.6,1.3,1,1.8c0.8,1,1.9,1.5,3.1,1.5C73.8,129.1,74.7,128.9,75.4,128.5"/>
	<path class="st0" d="M85.2,118.9l-1.5,3.5c-0.5,1.1-0.8,2.1-1,2.8h5l-2.3-6.3H85.2z M93.3,128.5c-1.3,1.2-2.3,1.7-3.1,1.7
		c-0.4,0-0.7-0.2-0.8-0.5l-1.4-3.3h-5.7c-0.2,0.7-0.3,1.3-0.3,1.9c0,0.6,0.1,1,0.2,1.4l-1.5,0.4c-0.2,0-0.3,0.1-0.4,0.1
		c-0.4,0-0.6-0.2-0.6-0.6c0.1-1,0.4-2,0.8-3.1c0.4-1.1,0.8-2,1.1-2.7c0.8-1.8,1.4-3.1,1.8-3.8c0.7-1.5,1.2-2.4,1.4-2.7
		c0.2-0.3,0.3-0.5,0.3-0.5h1c0.3,0,0.5,0,0.7,0.1c0.2,0.1,0.3,0.3,0.5,0.7l4.3,11l1.7-0.7L93.3,128.5z"/>
	<path class="st0" d="M98.3,130.2c-0.8,0-1.1-0.3-1.1-0.9V118c-1.3,0-2.7,0.1-4.2,0.4c-0.3,0.1-0.6,0.1-0.7,0.1c0,0,0,0,0-0.1
		c0-0.1,0-0.2-0.1-0.3c-0.1-0.3-0.1-0.5-0.1-0.7c0-0.2,0.1-0.4,0.3-0.4c0.2-0.1,0.4-0.2,0.8-0.2c0.3,0,0.5,0,0.9,0
		c0.1,0,0.2,0,0.3,0c0.4,0,0.9,0,1.4,0h4.1c1.5,0,3-0.1,4.6-0.3c0,0,0,0,0,0.1c0,0.1,0,0.1,0.1,0.2c0.1,0.3,0.1,0.5,0.1,0.7
		c0,0.2-0.1,0.3-0.2,0.4c-0.1,0.1-0.3,0.2-0.4,0.2c-0.3,0.1-0.8,0.1-1.6,0.1s-1.8,0-2.8-0.1v9c0,1,0,1.6,0.1,2.1l0.2,0.8
		C99.3,130.1,98.8,130.2,98.3,130.2"/>
	<path class="st1" d="M85.4,76.5c-3.5,1.5-6.8,2.6-9.9,3.4c-0.5,2.6-1.1,5.1-1.6,7c0.4,0.2,0.8,0.4,1.2,0.6
		c4.7,2.1,8.7,2.8,11.9,2.8c5.2,0,8.1-1.8,8.1-1.8S94,81.9,85.4,76.5"/>
	<path class="st1" d="M36.7,77.3c-7.5,5.2-8.6,11.1-8.6,11.1s2.9,1.8,8.1,1.8c3.2,0,7.2-0.7,11.9-2.8c0.5-0.2,1-0.4,1.4-0.7
		c-0.4-1.7-0.9-3.8-1.4-6.1C44.7,80,40.8,78.9,36.7,77.3"/>
	<path class="st1" d="M111.9,36c-3.3,0-7.5,0.5-12.4,2c-1.1,3.2-2.5,6.7-4.4,10.3c-5.5,10.6-12.4,18.2-18.6,23.6c0,0.2,0,0.4,0,0.7
		c1.5,0.4,3.1,1,4.6,1.7c1.6,0.7,3.1,1.5,4.4,2.3c4.3-1.8,8.9-4.3,13.4-7.5c21.6-15.1,21.4-31.9,21.4-31.9S117.1,36,111.9,36"/>
	<path class="st2" d="M76.4,72.5c-0.1,2.3-0.5,4.9-0.9,7.4c3.1-0.8,6.4-1.9,9.9-3.4c-1.3-0.8-2.7-1.6-4.4-2.3
		C79.4,73.5,77.9,72.9,76.4,72.5"/>
	<path class="st1" d="M8.3,36C3,36,0,37.1,0,37.1S-0.2,53.9,21.4,69c5.2,3.7,10.4,6.3,15.3,8.2c1.6-1.1,3.4-2.1,5.5-3.1
		c1-0.4,2-0.8,3-1.2c-6.6-5.4-14.1-13.4-20.1-24.8c-1.9-3.6-3.3-7.1-4.4-10.3C15.8,36.4,11.6,36,8.3,36"/>
	<path class="st2" d="M45.2,73c-1,0.3-2,0.7-3,1.2c-2.1,1-4,2-5.5,3.1c4.1,1.6,8,2.7,11.5,3.4c-0.4-2-0.7-4.1-0.9-6
		C46.6,74.2,45.9,73.6,45.2,73"/>
	<path class="st1" d="M99.7,6.4c0,0-13.5,1.6-25.8,18.4c0.9,4.2,1.4,9,1.4,14.4c0,5.2-0.5,10-1.3,14.4c2.6-2.5,5.5-5,8.9-7.3
		c6.1-4.3,11.7-6.8,16.6-8.4C106.1,18.4,99.7,6.4,99.7,6.4"/>
	<path class="st2" d="M99.5,37.9c-4.9,1.5-10.5,4.1-16.6,8.4c-3.3,2.3-6.3,4.8-8.9,7.3c-0.3,1.9-0.7,3.7-1.2,5.4
		c1.5,3.9,2.7,7.2,3.2,9c0.3,1,0.4,2.4,0.4,3.9c6.2-5.4,13.2-13.1,18.6-23.6C96.9,44.6,98.4,41.2,99.5,37.9"/>
	<path class="st1" d="M20.5,6.4c0,0-6.4,12,0.2,31.5c4.9,1.5,10.5,4.1,16.6,8.4c3.3,2.3,6.3,4.8,8.9,7.3c-0.8-4.4-1.3-9.2-1.3-14.4
		c0-5.4,0.5-10.2,1.4-14.4C34.1,8.1,20.5,6.4,20.5,6.4"/>
	<path class="st2" d="M20.7,37.9c1.1,3.2,2.5,6.7,4.4,10.3C31.1,59.6,38.6,67.6,45.2,73c0.6-0.2,1.3-0.4,1.9-0.6
		c-0.1-1.7,0-3.3,0.4-4.5c0.3-0.9,0.7-2.3,1.3-4c-1-3.2-1.9-6.7-2.6-10.4c-2.6-2.5-5.5-5-8.9-7.3C31.3,42,25.6,39.4,20.7,37.9"/>
	<path class="st3" d="M47.1,72.4c-0.6,0.2-1.3,0.4-1.9,0.6c0.7,0.6,1.4,1.1,2.1,1.6C47.2,73.9,47.1,73.1,47.1,72.4"/>
	<path class="st1" d="M60.1,0c0,0-10,6.8-13.8,24.8c2,2.7,3.9,5.8,5.8,9.4c1.8,3.5,3.3,7,4.5,10.4c2.1-4.7,4-8.2,4.8-8.2
		c0,0,0,0,0,0c0.1,0,0.2,0.1,0.2,0.3c0.1-0.2,0.2-0.3,0.2-0.3c0,0,0,0,0,0c0.6,0,1.7,1.7,3,4.3c0.9-2.2,1.9-4.3,3-6.5
		c1.9-3.6,3.8-6.7,5.8-9.4C70.1,6.8,60.1,0,60.1,0"/>
	<path class="st2" d="M73.9,24.8c-2,2.7-3.9,5.8-5.8,9.4c-1.1,2.2-2.2,4.4-3,6.5c2,3.9,4.5,9.8,6.6,15.2c0.8-0.8,1.5-1.6,2.4-2.4
		c0.8-4.4,1.3-9.2,1.3-14.4C75.3,33.8,74.8,29,73.9,24.8"/>
	<path class="st3" d="M74,53.6c-0.8,0.8-1.6,1.6-2.4,2.4c0.4,1,0.8,2.1,1.2,3C73.3,57.3,73.7,55.5,74,53.6"/>
	<path class="st2" d="M46.3,24.8c-0.9,4.2-1.4,9-1.4,14.4c0,5.2,0.5,10,1.3,14.4c1.7,1.6,3.3,3.3,4.7,4.9c1.7-4.5,3.9-9.7,5.8-13.9
		c-1.2-3.4-2.7-6.9-4.5-10.4C50.3,30.6,48.3,27.5,46.3,24.8"/>
	<path class="st3" d="M46.2,53.6c0.7,3.8,1.6,7.3,2.6,10.4c0.6-1.6,1.3-3.5,2-5.5C49.4,56.9,47.9,55.2,46.2,53.6"/>
	<path class="st3" d="M76,68c-1.8-6-11.7-31.6-14-31.6c0,0,0,0,0,0c-0.1,0-0.2,0.1-0.3,0.3c-0.1-0.2-0.2-0.3-0.3-0.3c0,0,0,0,0,0
		c-2.3,0-12.2,25.5-14,31.6c-1.8,6,2.9,22.1,2.9,22.1l-24,21.7h21.9l13.3-17l13.3,17H97l-24-21.7C73.1,90.1,77.8,74,76,68"/>
</g>
<path class="st4" d="M61.7,94.4l-13.3,17.4L61.7,94.4z"/>
<g>
	<path class="st0" d="M61.5,36.4c-0.2,0-0.6,0.3-1,0.8v7.3c0.4-0.9,0.8-1.8,1.2-2.7c-0.4,1.4-0.8,2.7-1.2,4.1v8.3
		c0.4-0.9,0.8-1.8,1.2-2.7c-0.4,1.4-0.8,2.8-1.2,4.1v34.9l-26.4,21.2h14.3l13.3-17V41.9v-5.2C61.7,36.5,61.6,36.4,61.5,36.4
		C61.5,36.4,61.5,36.4,61.5,36.4"/>
	<path class="st1" d="M60.5,54.3c-0.2,0.5-0.4,1-0.6,1.5c-0.6,1.4-1.1,2.8-1.6,4.3c-0.5,1.4-1,2.9-1.5,4.3c-0.5,1.4-0.9,2.9-1.3,4.4
		c0.7-1.4,1.3-2.8,1.8-4.2c0.6-1.4,1.1-2.8,1.7-4.3c0.5-1.4,1-2.9,1.5-4.3c0-0.1,0.1-0.2,0.1-0.3V54.3z"/>
	<path class="st1" d="M61.7,41.9L61.7,41.9c0.4,1.7,0.9,3.2,1.5,4.8c0.5,1.6,1.1,3.2,1.7,4.8c0.6,1.6,1.2,3.2,1.8,4.8
		c0.6,1.6,1.3,3.2,2,4.7c-0.4-1.7-1-3.3-1.5-4.9c-0.5-1.6-1.1-3.2-1.7-4.8c-0.6-1.6-1.2-3.2-1.8-4.8C63.1,45,62.5,43.5,61.7,41.9"/>
	<path class="st1" d="M61.7,51.7L61.7,51.7c0.4,1.5,0.8,2.9,1.3,4.3c0.5,1.5,1,2.9,1.5,4.3c0.5,1.4,1.1,2.9,1.6,4.3
		c0.6,1.4,1.2,2.8,1.8,4.2c-0.4-1.5-0.8-2.9-1.3-4.4c-0.5-1.5-1-2.9-1.5-4.3c-0.5-1.4-1.1-2.9-1.6-4.3C63,54.4,62.4,53,61.7,51.7"/>
	<path class="st1" d="M60.5,44.6c-0.3,0.7-0.5,1.3-0.8,2c-0.6,1.6-1.2,3.2-1.8,4.8c-0.6,1.6-1.2,3.2-1.7,4.8c-0.5,1.6-1,3.2-1.5,4.9
		c0.7-1.5,1.4-3.1,2-4.7c0.6-1.6,1.2-3.2,1.8-4.8c0.6-1.6,1.2-3.2,1.7-4.8c0.1-0.3,0.2-0.6,0.3-0.8V44.6z"/>
	<path class="st1" d="M61.7,41.9c-0.4,0.9-0.8,1.8-1.2,2.7v1.3C60.9,44.6,61.3,43.2,61.7,41.9"/>
	<path class="st1" d="M61.7,51.6c-0.4,0.9-0.8,1.8-1.2,2.7v1.4C60.9,54.3,61.4,53,61.7,51.6"/>
	<path class="st1" d="M62,35.8L62,35.8L62,35.8L62,35.8L62,35.8c-0.1,0-0.2,0-0.3,0c-0.1,0-0.1,0-0.2,0l0,0l0,0
		c-0.6,0-1.9,0-7.8,13.9c-3.1,7.5-6,15.2-6.8,18.1c-1.7,5.7,2.1,19.6,2.8,22.1l-22.7,21.3l-2.2,1.2h1.6h21.9h0.3l-0.3-0.6l13.3-17
		l13.3,17l-0.5,0.4l0.5,0.2H97h1.6l-1.6-0.6L73.8,89.9c0.7-2.5,4.5-16.4,2.8-22.1c-0.8-2.9-3.7-10.6-6.8-18.1
		C63.9,35.8,62.6,35.8,62,35.8 M62,36.4c2.3,0,12.2,25.5,14,31.6c1.8,6-2.9,22.1-2.9,22.1l24,21.7H75.1l-13.3-17l-13.3,17H26.5
		l24-21.7c0,0-4.7-16.1-3-22.1c1.8-6,11.7-31.6,14-31.6c0,0,0,0,0,0c0.1,0,0.2,0.1,0.3,0.3C61.8,36.5,61.9,36.4,62,36.4
		C62,36.4,62,36.4,62,36.4"/>
</g>
<polyline class="st0" points="1.4,112.7 121.9,112.7 121.9,111.2 1.4,111.2 "/>
<rect x="32.1" y="112" class="st0" width="0.7" height="5.9"/>
<rect x="93.8" y="112" class="st0" width="0.7" height="5.9"/>
<g>
	<path class="st1" d="M20.5,134.2l-0.9,6.2h-0.5l0.9-6.2H20.5z"/>
	<path class="st1" d="M25.7,140.3H25l-2.1-5.7c0,0.6-0.1,1.3-0.2,2.3l-0.5,3.4h-0.5l0.9-6.2h0.7l2.1,5.7c0-0.6,0.1-1.3,0.2-1.9
		l0.5-3.7h0.5L25.7,140.3z"/>
	<path class="st1" d="M31.7,134.7c0.5,0.3,0.7,0.9,0.7,1.8c0,0.7-0.1,1.3-0.3,1.9c-0.2,0.6-0.6,1.1-1.1,1.4s-1.1,0.5-1.9,0.5h-1.3
		l0.9-6.2h1.2C30.6,134.2,31.2,134.3,31.7,134.7z M29.1,134.6l-0.7,5.3h0.8c0.6,0,1.1-0.2,1.5-0.5s0.7-0.8,0.8-1.3s0.3-1.1,0.3-1.7
		c0-0.7-0.2-1.2-0.5-1.5c-0.4-0.3-0.8-0.4-1.4-0.4H29.1z"/>
	<path class="st1" d="M35,134.2l-0.9,6.2h-0.5l0.9-6.2H35z"/>
	<path class="st1" d="M39.5,140.3l-0.3-1.7h-2.6l-0.8,1.7h-0.6l2.9-6.2h0.7l1.2,6.2H39.5z M36.9,138.2h2.3l-0.6-3.6L36.9,138.2z"/>
	<path class="st1" d="M45.4,140.3h-0.7l-2.1-5.7c0,0.6-0.1,1.3-0.2,2.3l-0.5,3.4h-0.5l0.9-6.2h0.7l2.1,5.7c0-0.6,0.1-1.3,0.2-1.9
		l0.5-3.7h0.5L45.4,140.3z"/>
	<path class="st1" d="M53.8,136.8c-0.3,0.3-0.7,0.6-1.2,0.7l1.3,2.8h-0.6l-1.2-2.8h-1.2l-0.4,2.8h-0.5l0.9-6.2h1.5
		c1.3,0,1.9,0.5,1.9,1.4C54.2,136,54.1,136.4,53.8,136.8z M52,137.1c0.6,0,1-0.1,1.3-0.5c0.3-0.3,0.4-0.7,0.4-1.1
		c0-0.3-0.1-0.6-0.3-0.8c-0.2-0.2-0.6-0.2-1.1-0.2h-1l-0.4,2.5H52z"/>
	<path class="st1" d="M59.3,134.2l-0.1,0.5h-2.5l-0.3,2.3h2.2l-0.1,0.5h-2.2l-0.4,2.5h2.6l-0.1,0.5h-3.2l0.9-6.2H59.3z"/>
	<path class="st1" d="M63.1,134.2c0.3,0.1,0.5,0.3,0.7,0.5l-0.3,0.3c-0.2-0.2-0.4-0.3-0.6-0.4s-0.5-0.1-0.7-0.1
		c-0.4,0-0.8,0.1-1.1,0.3c-0.3,0.2-0.4,0.5-0.4,0.8c0,0.3,0.1,0.5,0.3,0.7c0.2,0.2,0.5,0.3,1,0.5c0.5,0.2,0.9,0.4,1.2,0.6
		c0.3,0.2,0.4,0.6,0.4,1c0,0.3-0.1,0.6-0.2,0.9s-0.4,0.5-0.8,0.7c-0.3,0.2-0.8,0.3-1.3,0.3c-0.4,0-0.8-0.1-1.1-0.2
		c-0.3-0.1-0.6-0.3-0.8-0.6l0.3-0.3c0.2,0.2,0.4,0.4,0.7,0.5c0.2,0.1,0.5,0.2,0.9,0.2c0.4,0,0.7-0.1,1-0.2c0.3-0.1,0.5-0.3,0.6-0.5
		s0.2-0.5,0.2-0.7c0-0.3-0.1-0.6-0.3-0.7c-0.2-0.2-0.5-0.4-1-0.5c-0.6-0.2-0.9-0.4-1.2-0.6c-0.2-0.2-0.4-0.5-0.4-0.9
		c0-0.3,0.1-0.5,0.2-0.8c0.2-0.3,0.4-0.5,0.7-0.6c0.3-0.2,0.7-0.2,1.1-0.2C62.5,134.1,62.8,134.1,63.1,134.2z"/>
	<path class="st1" d="M68.8,134.2l-0.1,0.5h-1.8l-0.8,5.7h-0.5l0.8-5.7h-1.8l0.1-0.5H68.8z"/>
	<path class="st1" d="M72,140.3l-0.3-1.7h-2.6l-0.8,1.7h-0.6l2.9-6.2h0.7l1.2,6.2H72z M69.4,138.2h2.3l-0.6-3.6L69.4,138.2z"/>
	<path class="st1" d="M77.9,138.4c-0.1,0.6-0.3,1.1-0.7,1.5s-0.9,0.5-1.6,0.5c-0.6,0-1-0.1-1.3-0.4c-0.3-0.3-0.4-0.7-0.4-1.2
		c0-0.1,0-0.3,0-0.4l0.6-4.2H75l-0.6,4.2c0,0.1,0,0.3,0,0.4c0,0.8,0.4,1.2,1.3,1.2c0.5,0,0.9-0.1,1.2-0.4c0.3-0.3,0.5-0.7,0.5-1.2
		l0.6-4.2h0.5L77.9,138.4z"/>
	<path class="st1" d="M83.6,136.8c-0.3,0.3-0.7,0.6-1.2,0.7l1.3,2.8H83l-1.2-2.8h-1.2l-0.4,2.8h-0.5l0.9-6.2H82
		c1.3,0,1.9,0.5,1.9,1.4C84,136,83.8,136.4,83.6,136.8z M81.7,137.1c0.6,0,1-0.1,1.3-0.5c0.3-0.3,0.4-0.7,0.4-1.1
		c0-0.3-0.1-0.6-0.3-0.8c-0.2-0.2-0.6-0.2-1.1-0.2h-1l-0.4,2.5H81.7z"/>
	<path class="st1" d="M88.4,140.3l-0.3-1.7h-2.6l-0.8,1.7h-0.6l2.9-6.2h0.7l1.2,6.2H88.4z M85.7,138.2H88l-0.6-3.6L85.7,138.2z"/>
	<path class="st1" d="M94.2,140.3h-0.7l-2.1-5.7c0,0.6-0.1,1.3-0.2,2.3l-0.5,3.4h-0.5l0.9-6.2h0.7l2.1,5.7c0-0.6,0.1-1.3,0.2-1.9
		l0.5-3.7h0.5L94.2,140.3z"/>
	<path class="st1" d="M100.5,134.2l-0.1,0.5h-1.8l-0.8,5.7h-0.5l0.8-5.7h-1.8l0.1-0.5H100.5z"/>
</g>
</svg>
